<svg enable-background="new 0 0 246 73" viewBox="0 0 246 73" xmlns="http://www.w3.org/2000/svg">
  <path
    d="m23.9 45.2c-1.5 0-2.9-.2-4-.7-1.2-.5-2.1-1.1-2.8-1.9l2.8-2.4c.6.6 1.3 1 2 1.3.8.3 1.5.4 2.2.4.3 0 .5 0 .7-.1s.4-.1.5-.2.3-.2.3-.4c.1-.1.1-.3.1-.5 0-.4-.2-.7-.5-.9-.2-.1-.5-.2-.9-.4-.4-.1-.9-.3-1.6-.4-.9-.2-1.7-.5-2.4-.8s-1.2-.7-1.6-1.1-.7-.8-.9-1.3-.3-1-.3-1.6c0-.7.2-1.4.5-1.9.3-.6.8-1.1 1.4-1.5s1.2-.7 2-1c.7-.2 1.5-.3 2.3-.3.9 0 1.7.1 2.4.3.8.2 1.5.5 2.2.8s1.3.8 1.8 1.2l-2.5 2.7c-.3-.3-.7-.6-1.2-.9s-.9-.5-1.4-.6c-.5-.2-.9-.2-1.3-.2-.3 0-.6 0-.8.1-.2 0-.4.1-.6.2s-.3.2-.3.4c-.1.1-.1.3-.1.5s.1.4.2.5c.1.2.3.3.5.4s.5.2.9.4c.4.1 1 .3 1.8.5.9.2 1.7.5 2.4.8s1.2.7 1.6 1.1c.3.3.6.7.7 1.1.2.4.2.9.2 1.4 0 1-.3 1.8-.8 2.6-.6.8-1.3 1.4-2.3 1.8-.9.4-2 .6-3.2.6z"/>
  <path
    d="m36.5 44.9-5.1-15.2h4.9l2.9 9.9-.6-.1 3.2-7.7h2.7l3.4 7.7-.7.1 2.9-9.9h4.9l-5.3 15.2h-3.5l-3.3-8.2h.3l-3.3 8.1h-3.4z"/>
  <path
    d="m60 26.6c-.9 0-1.6-.2-2-.6-.5-.4-.7-1-.7-1.8 0-.7.2-1.3.7-1.7s1.2-.7 2-.7c.9 0 1.6.2 2 .6.5.4.7 1 .7 1.8 0 .7-.2 1.3-.7 1.7-.5.5-1.2.7-2 .7zm-2.4 18.3v-15.3h4.7v15.2h-4.7z"/>
  <path
    d="m71.9 45.2c-1.5 0-2.9-.2-4-.7-1.2-.5-2.1-1.1-2.8-1.9l2.8-2.4c.6.6 1.3 1 2 1.3.8.3 1.5.4 2.2.4.3 0 .5 0 .7-.1s.4-.1.5-.2.3-.2.3-.4c.1-.1.1-.3.1-.5 0-.4-.2-.7-.5-.9-.2-.1-.5-.2-.9-.4-.4-.1-.9-.3-1.6-.4-.9-.2-1.7-.5-2.4-.8s-1.2-.7-1.6-1.1-.7-.8-.9-1.3-.3-1-.3-1.6c0-.7.2-1.4.5-1.9.3-.6.8-1.1 1.4-1.5s1.2-.7 2-1c.7-.2 1.5-.3 2.3-.3.9 0 1.7.1 2.4.3.8.2 1.5.5 2.2.8s1.3.8 1.8 1.2l-2.5 2.7c-.3-.3-.7-.6-1.2-.9-.4-.3-.9-.5-1.4-.6-.5-.2-.9-.2-1.3-.2-.3 0-.6 0-.8.1-.2 0-.4.1-.6.2s-.3.2-.3.4c-.1.1-.1.3-.1.5s.1.4.2.5c.1.2.3.3.5.4s.5.2.9.4c.4.1 1 .3 1.8.5.9.2 1.7.5 2.4.8s1.2.7 1.6 1.1c.3.3.6.7.7 1.1.2.4.2.9.2 1.4 0 1-.3 1.8-.8 2.6-.6.8-1.3 1.4-2.3 1.8-.9.4-2 .6-3.2.6z"/>
  <path
    d="m86.3 45.2c-1.5 0-2.9-.2-4-.7-1.2-.5-2.1-1.1-2.8-1.9l2.8-2.4c.6.6 1.3 1 2 1.3.8.3 1.5.4 2.2.4.3 0 .5 0 .7-.1s.4-.1.5-.2.3-.2.3-.4c.1-.1.1-.3.1-.5 0-.4-.2-.7-.5-.9-.2-.1-.5-.2-.9-.4-.4-.1-.9-.3-1.6-.4-.9-.2-1.7-.5-2.4-.8s-1.2-.7-1.6-1.1-.7-.8-.9-1.3-.3-1-.3-1.6c0-.7.2-1.4.5-1.9.3-.6.8-1.1 1.4-1.5s1.2-.7 2-1c.7-.2 1.5-.3 2.3-.3.9 0 1.7.1 2.4.3.8.2 1.5.5 2.2.8s1.3.8 1.8 1.2l-2.5 2.7c-.3-.3-.7-.6-1.2-.9-.4-.3-.9-.5-1.4-.6-.5-.2-.9-.2-1.3-.2-.3 0-.6 0-.8.1-.2 0-.4.1-.6.2s-.3.2-.3.4-.1.3-.1.5.1.4.2.5c.1.2.3.3.5.4s.5.2.9.4c.4.1 1 .3 1.8.5.9.2 1.7.5 2.4.8s1.2.7 1.6 1.1c.3.3.6.7.7 1.1.2.4.2.9.2 1.4 0 1-.3 1.8-.8 2.6-.6.8-1.3 1.4-2.3 1.8-.9.4-2 .6-3.2.6z"/>
  <g fill="#eb2020">
    <path d="m140.7 33.7v-4h10.4v4zm2.7 11.2v-19.1h4.7v19.1z"/>
    <path
      d="m153.8 44.9v-15.3h4.4l.2 5-.9-.9c.2-.8.6-1.6 1.1-2.2.5-.7 1.2-1.2 1.9-1.5.7-.4 1.5-.6 2.3-.6.3 0 .7 0 1 .1s.6.1.8.2l-1.3 5.1c-.2-.1-.5-.2-.9-.3s-.7-.1-1.1-.1-.8.1-1.2.2-.7.4-.9.6c-.3.3-.5.6-.6 1s-.2.8-.2 1.2v7.6z"/>
    <path
      d="m173.7 41.2c.7 0 1.3-.2 1.9-.5.5-.3 1-.8 1.3-1.4s.5-1.3.4-2c0-.8-.1-1.5-.4-2.1s-.7-1.1-1.3-1.4c-.5-.3-1.2-.5-1.9-.5s-1.3.2-1.9.5-1 .8-1.3 1.4-.5 1.3-.5 2.1.1 1.4.5 2c.3.6.7 1.1 1.3 1.4.5.3 1.2.5 1.9.5zm0 4c-1.6 0-3-.3-4.3-1s-2.2-1.6-3-2.8c-.7-1.2-1.1-2.5-1.1-4.1 0-1.5.4-2.9 1.1-4.1s1.7-2.1 3-2.8 2.7-1 4.3-1 3 .3 4.3 1c1.2.7 2.2 1.6 3 2.8.7 1.2 1.1 2.5 1.1 4.1 0 1.5-.4 2.9-1.1 4.1s-1.7 2.1-3 2.8c-1.3.6-2.8 1-4.3 1z"/>
    <path
      d="m185 44.9v-15.3h4.4l.2 3.1-.9.3c.2-.7.6-1.3 1.1-1.9.6-.6 1.2-1 2-1.4.8-.3 1.6-.5 2.4-.5 1.2 0 2.1.2 2.9.7s1.4 1.2 1.8 2.1.6 2.1.6 3.4v9.4h-4.7v-9c0-.6-.1-1.1-.3-1.5s-.4-.7-.8-.9-.8-.3-1.3-.3c-.4 0-.8.1-1.1.2s-.6.3-.9.5-.5.5-.6.8-.2.6-.2 1v9.1z"/>
    <path
      d="m206.1 26.6c-.9 0-1.6-.2-2-.6-.5-.4-.7-1-.7-1.8 0-.7.2-1.3.8-1.7.5-.4 1.2-.7 2-.7.9 0 1.6.2 2 .6.5.4.7 1 .7 1.8 0 .7-.2 1.3-.7 1.7-.5.5-1.2.7-2.1.7zm-2.3 18.3v-15.3h4.7v15.2h-4.7z"/>
    <path d="m223.3 44.9-5.4-7 3.3-2.5 7.7 9.5zm-10.5 0v-21.3h4.7v21.2h-4.7zm4.5-4.5-1.7-3.4 7.2-7.3h6.1z"/>
    <path
      d="m136 34.2v-5.4h-5.8v-5.4h-5.4v-5.7h-5.4v5.7h-5.4v-5.7h-5.4v5.7h-5.6v5.4h-5.8v5.4h5.8v5.4h-5.8v5.4h5.8v5.4h5.4v5.6h5.4v-5.7h5.4v5.7h5.4v-5.7h5.4v-5.4h5.8v-5.4h-5.8v-5.4h6zm-11.3 5.3h-5.4v5.4h-5.4v-5.4h-5.4v-5.4h5.4v-5.4h5.4v5.4h5.4z"/>
  </g>
</svg>
